<?xml version="1.0" encoding="utf-8"?>
<!DOCTYPE svg PUBLIC "-//W3C//DTD SVG 1.1//EN" "http://www.w3.org/Graphics/SVG/1.1/DTD/svg11.dtd">
<svg version="1.1" id="Ebene_1" xmlns="http://www.w3.org/2000/svg" xmlns:xlink="http://www.w3.org/1999/xlink" x="0px" y="0px"
	 width="200px" height="178px" viewBox="-100 239.5 200 178" enable-background="new -100 239.5 200 178" xml:space="preserve">
<g>
	<path fill="#CCCBCB" d="M44.678,265.337c0.168,0.045,0.342,0.068,0.516,0.068c0.906,0,1.701-0.61,1.934-1.482l3.106-11.591
		c0.139-0.515,0.067-1.054-0.2-1.519c-0.268-0.463-0.697-0.795-1.214-0.934l-34.772-9.316c-1.037-0.274-2.173,0.375-2.449,1.414
		l-3.106,11.594c-0.284,1.062,0.351,2.162,1.414,2.447l3.517,0.941l-2.052,18.085l-1.06-0.283l-0.822-5.565
		c-0.042-0.281-0.202-0.532-0.439-0.688c-0.238-0.157-0.533-0.202-0.809-0.13l-7.729,2.07l-2.424-9.045
		c-0.57-2.129-2.771-3.403-4.897-2.828l-25.114,6.729c-2.13,0.571-3.398,2.771-2.828,4.899l2.424,9.044l-7.728,2.07
		c-0.275,0.072-0.506,0.262-0.635,0.517c-0.128,0.255-0.142,0.552-0.036,0.817l4.715,11.92h-8.291l4.977,3.731l-8.17,3.197h-0.807
		v114c0,1.104,0.897,2,2,2h92c1.104,0,2-0.896,2-2v-114h-0.807l-8.17-3.194l4.977-3.732h-8.371l1.247-6.562l1.894,0.508
		c0.168,0.045,0.342,0.067,0.518,0.067c0.902,0,1.697-0.608,1.936-1.481l0.518-1.934c0.283-1.064-0.352-2.162-1.414-2.447
		l-6.123-1.642l7.268-16.688L44.678,265.337z M27.995,279.502l5.527-17.153l5.687,1.522l-7.267,16.688L27.995,279.502z
		 M21.059,259.009l-3.788,17.619l-3.949-1.059l2.051-18.086L21.059,259.009z M22.994,259.526l8.594,2.303l-5.525,17.154
		l-6.855-1.838L22.994,259.526z M13.528,242.496l34.772,9.317l-3.104,11.588c-0.001,0.002-0.003,0.002-0.004,0.002l-34.771-9.315
		L13.528,242.496z M-32.822,269.687c-0.285-1.063,0.35-2.164,1.414-2.449l25.114-6.729c1.062-0.281,2.165,0.352,2.45,1.415
		l2.423,9.044l-1.932,0.52c-0.479,0.129-0.794,0.592-0.734,1.084l0.646,5.35c-3.731-0.05-7.858,0.48-11.771,1.529
		c-3.569,0.957-7.099,2.38-10.063,4.044l-2.01-4.704c-0.197-0.458-0.701-0.703-1.181-0.573l-1.932,0.519L-32.822,269.687z
		 M-2.498,285.749l-19.574,5.244l-2.414-5.65c2.859-1.631,6.3-3.027,9.791-3.965c3.836-1.027,7.879-1.533,11.494-1.455
		L-2.498,285.749z M-28.786,280.369l5.215,12.207c0.194,0.458,0.699,0.704,1.179,0.573l21.25-5.693
		c0.479-0.129,0.794-0.592,0.733-1.085l-1.588-13.181l2.06-0.554c0.001,0,0.001,0,0.001,0s0,0,0.001,0l7.608-2.038l0.53,3.601
		l-2.959-0.794c-1.036-0.273-2.172,0.375-2.448,1.414l-0.519,1.933c-0.14,0.515-0.065,1.056,0.201,1.519s0.698,0.795,1.213,0.933
		l1.894,0.507l-6.272,17.979l-14.509,3.812h-15.898l-7.361-18.541L-28.786,280.369z M29.26,301.501l3.312-14.043l1.97,0.527
		l-2.582,13.516H29.26z M6.236,298.038l1.533,0.408l1.548,3.055h-4.17L6.236,298.038z M27.43,300.614l-0.217,0.887l-20.275-5.346
		l0.258-0.965L27.43,300.614z M11.27,301.009l-0.932-1.88l9.202,2.372h-8.192C11.371,301.313,11.36,301.19,11.27,301.009z
		 M27.887,298.666l-7.812-2.093h8.302L27.887,298.666z M7.709,293.259l2.241-7.271l1.214,8.197L7.709,293.259z M3.055,301.501H0.075
		l7.283-20.8l1.884,0.505l0.028,0.189L3.055,301.501z M-7.467,301.501l5.982-1.529l-0.559,1.529H-7.467z M-35.28,298.841
		l-3.023-2.268h3.081l1.978,4.928h-8.867L-35.28,298.841z M45.697,415.501h-92v-112h92V415.501z M37.697,296.573l-3.023,2.268
		l6.832,2.66h-7.511l0.95-4.928H37.697z M28.848,294.573H13.243l-1.928-13.021l0.089-0.285l19.35,5.186L28.848,294.573z
		 M38.981,286.586l-34.771-9.315l0.518-1.933l34.773,9.317L38.981,286.586z"/>
	<path fill="#CCCBCB" d="M27.697,324.501c0-0.553-0.447-1-1-1h-3c-0.553,0-1,0.447-1,1v23c0,12.684-10.316,23-23,23
		c-4.299,0-8.325-1.188-11.771-3.25h5.771c0.414,0,0.75-0.336,0.75-0.75s-0.336-0.75-0.75-0.75h-7.975
		c-1.344-1.029-2.569-2.204-3.656-3.5h8.631c0.414,0,0.75-0.336,0.75-0.75s-0.336-0.75-0.75-0.75h-9.782
		c-0.778-1.1-1.464-2.27-2.043-3.5h8.825c0.414,0,0.75-0.336,0.75-0.75s-0.336-0.75-0.75-0.75h-9.464
		c-0.435-1.127-0.786-2.296-1.04-3.5h9.504c0.414,0,0.75-0.336,0.75-0.75s-0.336-0.75-0.75-0.75h-9.766
		c-0.151-1.062-0.234-2.146-0.234-3.25v-0.25h9c0.414,0,0.75-0.336,0.75-0.75s-0.336-0.75-0.75-0.75h-9v-3.5h9
		c0.414,0,0.75-0.336,0.75-0.75s-0.336-0.75-0.75-0.75h-9v-3.5h9c0.414,0,0.75-0.336,0.75-0.75s-0.336-0.75-0.75-0.75h-9v-3.5h9
		c0.414,0,0.75-0.336,0.75-0.75s-0.336-0.75-0.75-0.75h-9v-3.5h9c0.414,0,0.75-0.336,0.75-0.75s-0.336-0.75-0.75-0.75h-9v-1.25
		c0-0.553-0.447-1-1-1h-3c-0.553,0-1,0.447-1,1v23c0,15.439,12.561,28,28,28c3.9,0,7.616-0.805,10.993-2.251
		c0.003,0,0.005,0.001,0.007,0.001h12c0.414,0,0.75-0.336,0.75-0.75s-0.336-0.75-0.75-0.75h-9.029
		c1.742-1.008,3.37-2.189,4.85-3.536c0.062,0.015,0.117,0.036,0.182,0.036h10c0.414,0,0.75-0.336,0.75-0.75s-0.336-0.75-0.75-0.75
		h-8.693c1.031-1.089,1.98-2.257,2.832-3.5h8.859c0.414,0,0.75-0.336,0.75-0.75s-0.336-0.75-0.75-0.75h-7.911
		c0.67-1.128,1.265-2.307,1.772-3.527c0.047,0.01,0.09,0.027,0.139,0.027h9c0.414,0,0.75-0.336,0.75-0.75s-0.336-0.75-0.75-0.75
		H26.12c0.397-1.137,0.729-2.303,0.979-3.5h8.598c0.414,0,0.75-0.336,0.75-0.75s-0.336-0.75-0.75-0.75h-8.322
		c0.176-1.145,0.271-2.314,0.303-3.5h9.02c0.414,0,0.75-0.336,0.75-0.75s-0.336-0.75-0.75-0.75h-9v-3.5h9
		c0.414,0,0.75-0.336,0.75-0.75s-0.336-0.75-0.75-0.75h-9v-3.5h9c0.414,0,0.75-0.336,0.75-0.75s-0.336-0.75-0.75-0.75h-9v-3.5h9
		c0.414,0,0.75-0.336,0.75-0.75s-0.336-0.75-0.75-0.75h-9v-3.5h9c0.414,0,0.75-0.336,0.75-0.75s-0.336-0.75-0.75-0.75h-9V324.501z
		 M-26.303,347.501v-22h1v22c0,13.785,11.215,25,25,25s25-11.215,25-25v-22h1v22c0,14.337-11.663,26-26,26
		S-26.303,361.838-26.303,347.501z"/>
</g>
</svg>
