<?xml version="1.0" encoding="utf-8"?>
<!DOCTYPE svg PUBLIC "-//W3C//DTD SVG 1.1//EN" "http://www.w3.org/Graphics/SVG/1.1/DTD/svg11.dtd">
<svg version="1.1" id="Ebene_1" xmlns="http://www.w3.org/2000/svg" xmlns:xlink="http://www.w3.org/1999/xlink" x="0px" y="0px"
	 width="200px" height="178px" viewBox="0 0 200 178" enable-background="new 0 0 200 178" xml:space="preserve">
<g>
	<path fill="#CCCBCB" d="M160.622,110.288L156,106.619V50c0-0.553-0.447-1-1-1H49c-0.553,0-1,0.447-1,1v56.619l-4.622,3.669
		c-0.237,0.19-0.378,0.479-0.378,0.782v64.931c0,1.103,0.896,1.999,2,1.999h114c1.104,0,2-0.896,2-1.999V111.07
		C161,110.768,160.859,110.479,160.622,110.288z M152.385,103.75H154v1.282L152.385,103.75z M50,51h104v51.25h-3.505l-4.409-3.5H153
		c0.414,0,0.75-0.336,0.75-0.75s-0.336-0.75-0.75-0.75h-8.805l-4.409-3.5H147c0.414,0,0.75-0.336,0.75-0.75s-0.336-0.75-0.75-0.75
		h-9.104l-4.41-3.5H141c0.414,0,0.75-0.336,0.75-0.75s-0.336-0.75-0.75-0.75h-9.402l-4.41-3.5H135c0.414,0,0.75-0.336,0.75-0.75
		s-0.336-0.75-0.75-0.75h-9.702l-4.409-3.5H129c0.414,0,0.75-0.336,0.75-0.75s-0.336-0.75-0.75-0.75h-10.002l-4.409-3.5H123
		c0.414,0,0.75-0.336,0.75-0.75s-0.336-0.75-0.75-0.75h-10.301l-7.788-6.182C104.13,65.379,103.096,65,102,65
		c-1.098,0-2.13,0.379-2.871,1.035L50,105.031V51z M159,176l-114,0.001v-3.251h11c0.414,0,0.75-0.336,0.75-0.75
		s-0.336-0.75-0.75-0.75H45v-3.5h10c0.414,0,0.75-0.336,0.75-0.75s-0.336-0.75-0.75-0.75H45v-3.5h10c0.414,0,0.75-0.336,0.75-0.75
		s-0.336-0.75-0.75-0.75H45v-3.5h9c0.414,0,0.75-0.336,0.75-0.75s-0.336-0.75-0.75-0.75h-9v-3.5h9c0.414,0,0.75-0.336,0.75-0.75
		s-0.336-0.75-0.75-0.75h-9v-3.5h9c0.414,0,0.75-0.336,0.75-0.75s-0.336-0.75-0.75-0.75h-9v-3.5h8c0.414,0,0.75-0.336,0.75-0.75
		s-0.336-0.75-0.75-0.75h-8v-3.5h9c0.414,0,0.75-0.336,0.75-0.75s-0.336-0.75-0.75-0.75h-9v-3.5h9c0.414,0,0.75-0.336,0.75-0.75
		s-0.336-0.75-0.75-0.75h-9v-3.5h9c0.414,0,0.75-0.336,0.75-0.75s-0.336-0.75-0.75-0.75h-9v-3.5h8c0.414,0,0.75-0.336,0.75-0.75
		s-0.336-0.75-0.75-0.75h-8v-3.5h7c0.414,0,0.75-0.336,0.75-0.75s-0.336-0.75-0.75-0.75h-7v-4.695l55.413-43.986
		c0.83-0.732,2.304-0.768,3.214,0.033l38.702,30.723c0.096,0.197,0.276,0.338,0.494,0.393L159,111.555V176z"/>
	<path fill="#CCCBCB" d="M82,147h40c0.553,0,1-0.447,1-1s-0.447-1-1-1H82c-0.553,0-1,0.447-1,1S81.447,147,82,147z"/>
	<path fill="#CCCBCB" d="M37,132H17c-0.553,0-1,0.447-1,1s0.447,1,1,1h20c0.553,0,1-0.447,1-1S37.553,132,37,132z"/>
	<path fill="#CCCBCB" d="M37,140H12c-0.553,0-1,0.447-1,1s0.447,1,1,1h25c0.553,0,1-0.447,1-1S37.553,140,37,140z"/>
	<path fill="#CCCBCB" d="M37,148H7c-0.553,0-1,0.447-1,1s0.447,1,1,1h30c0.553,0,1-0.447,1-1S37.553,148,37,148z"/>
	<path fill="#CCCBCB" d="M37,156H17c-0.553,0-1,0.447-1,1s0.447,1,1,1h20c0.553,0,1-0.447,1-1S37.553,156,37,156z"/>
	<path fill="#CCCBCB" d="M124,153H80c-0.553,0-1,0.447-1,1s0.447,1,1,1h44c0.553,0,1-0.447,1-1S124.553,153,124,153z"/>
	<path fill="#CCCBCB" d="M120.5,161h-38c-0.553,0-1,0.447-1,1s0.447,1,1,1h38c0.553,0,1-0.447,1-1S121.053,161,120.5,161z"/>
	<path fill="#CCCBCB" d="M134,120c-0.553,0-1,0.447-1,1v18c0,0.553,0.447,1,1,1h16c0.553,0,1-0.447,1-1v-18c0-0.553-0.447-1-1-1H134
		z M149,138h-14v-16h14V138z"/>
</g>
</svg>
