<?xml version="1.0" encoding="utf-8"?>
<!DOCTYPE svg PUBLIC "-//W3C//DTD SVG 1.1//EN" "http://www.w3.org/Graphics/SVG/1.1/DTD/svg11.dtd">
<svg version="1.1" id="Ebene_1" xmlns="http://www.w3.org/2000/svg" xmlns:xlink="http://www.w3.org/1999/xlink" x="0px" y="0px"
	 width="200px" height="178px" viewBox="-82 239.5 200 178" enable-background="new -82 239.5 200 178" xml:space="preserve">
<g>
	<path fill="#CCCBCB" d="M-21,319.5H1v-22h-22V319.5z M-19,299.5h18v18h-18V299.5z"/>
	<path fill="#CCCBCB" d="M-21,349.5H1v-22h-22V349.5z M-19,329.5h18v18h-18V329.5z"/>
	<path fill="#CCCBCB" d="M-21,379.5H1v-22h-22V379.5z M-19,359.5h18v18h-18V359.5z"/>
	<path fill="#CCCBCB" d="M11,309.5h36c0.553,0,1-0.447,1-1s-0.447-1-1-1H11c-0.553,0-1,0.447-1,1S10.447,309.5,11,309.5z"/>
	<path fill="#CCCBCB" d="M11,339.5h36c0.553,0,1-0.447,1-1s-0.447-1-1-1H11c-0.553,0-1,0.447-1,1S10.447,339.5,11,339.5z"/>
	<path fill="#CCCBCB" d="M101.57,322.582l-3.223-6.447l-4.357-4.355l-6.522-3.377L69,326.869V287.5c0-1.104-0.896-2-2-2h-98
		c-1.103,0-2,0.896-2,2v128c0,1.104,0.897,2,2,2h98c1.104,0,2-0.896,2-2v-60.348L101.57,322.582z M65,359.25h2v3.5h-5.598
		l3.518-3.518C64.947,359.236,64.973,359.25,65,359.25z M18.32,396.525c-0.592-0.993-1.299-1.908-2.111-2.725
		c-0.812-0.812-1.729-1.519-2.725-2.109l5.789-12.209l4.535,2.268l0.741,3.71l3.709,0.742l2.269,4.534L18.32,396.525z
		 M12.623,393.508c0.792,0.487,1.521,1.059,2.172,1.709c0.652,0.652,1.223,1.383,1.709,2.172l-7.382,3.502L12.623,393.508z
		 M93.283,313.898l2.828,2.83L28.607,384.23l-2.356-0.472l-0.472-2.356L93.283,313.898z M68.418,347.25h5.657l-3.5,3.5h-5.657
		L68.418,347.25z M69.918,345.75l3.5-3.5h5.657l-3.5,3.5H69.918z M74.918,340.75l3.5-3.5h5.657l-3.5,3.5H74.918z M79.918,335.75
		l3.5-3.5h5.657l-3.5,3.5H79.918z M84.918,330.75l3.5-3.5h5.657l-3.5,3.5H84.918z M89.918,325.75l3.5-3.5h5.657l-3.5,3.5H89.918z
		 M60.575,360.75h-5.657l3.5-3.5h5.657L60.575,360.75z M31.021,387.25h3.054l-2.036,2.036L31.021,387.25z M35.575,385.75h-5.304
		l-0.119-0.234l3.266-3.266h5.657L35.575,385.75z M40.575,380.75h-5.657l3.5-3.5h5.657L40.575,380.75z M45.575,375.75h-5.657
		l3.5-3.5h5.657L45.575,375.75z M50.575,370.75h-5.657l3.5-3.5h5.657L50.575,370.75z M55.575,365.75h-5.657l3.5-3.5h5.657
		L55.575,365.75z M65.575,355.75h-5.657l3.5-3.5h5.657L65.575,355.75z M98.419,320.75h-3.501l2.334-2.334L98.419,320.75z
		 M87.854,310.843l3.748,1.909l-67.104,67.105l-3.771-1.887L87.854,310.843z M-31,415.5v-128h98v41.369l-38.691,38.693
		c-0.1-0.033-0.199-0.062-0.309-0.062H11c-0.553,0-1,0.447-1,1s0.447,1,1,1h15.369l-9.021,9l0.137,0.089L4.912,405.102l1.882-0.894
		c0.065,0.021,0.134,0.042,0.207,0.042h10c0.414,0,0.75-0.336,0.75-0.75s-0.336-0.75-0.75-0.75H9.868l7.379-3.5H27
		c0.414,0,0.75-0.336,0.75-0.75s-0.336-0.75-0.75-0.75h-6.592l7.379-3.5H37c0.414,0,0.75-0.336,0.75-0.75s-0.336-0.75-0.75-0.75
		h-6.05l0.472-0.225l0.068,0.138l3.43-3.431c0.027,0.004,0.053,0.018,0.08,0.018h10c0.414,0,0.75-0.336,0.75-0.75
		s-0.336-0.75-0.75-0.75h-8.598l3.518-3.518c0.027,0.004,0.053,0.018,0.08,0.018h10c0.414,0,0.75-0.336,0.75-0.75
		s-0.336-0.75-0.75-0.75h-8.598l3.518-3.518c0.027,0.004,0.053,0.018,0.08,0.018h10c0.414,0,0.75-0.336,0.75-0.75
		s-0.336-0.75-0.75-0.75h-8.598l3.518-3.518c0.027,0.004,0.053,0.018,0.08,0.018h10c0.414,0,0.75-0.336,0.75-0.75
		s-0.336-0.75-0.75-0.75h-8.598l3.518-3.518c0.027,0.004,0.053,0.018,0.08,0.018h10c0.414,0,0.75-0.336,0.75-0.75
		s-0.336-0.75-0.75-0.75h-8.598l3.518-3.518c0.027,0.004,0.053,0.018,0.08,0.018h7v51.25H-31z M67,357.75h-0.598L67,357.152V357.75z
		"/>
</g>
</svg>
